<?xml version="1.0" standalone="no"?>
<!DOCTYPE svg PUBLIC "-//W3C//DTD SVG 20010904//EN"
 "http://www.w3.org/TR/2001/REC-SVG-20010904/DTD/svg10.dtd">
<svg version="1.0" xmlns="http://www.w3.org/2000/svg"
 width="584.000000pt" height="584.000000pt" viewBox="0 0 584.000000 584.000000"
 preserveAspectRatio="xMidYMid meet">
<metadata>
Created by potrace 1.14, written by Peter Selinger 2001-2017
</metadata>
<g transform="translate(0.000000,584.000000) scale(0.100000,-0.100000)"
fill="#000000" stroke="none">
<path d="M1742 5814 c-42 -22 -73 -65 -79 -112 -2 -20 -5 -131 -6 -247 l-2
-210 -370 -1 c-203 0 -392 -4 -420 -9 -223 -35 -439 -209 -516 -414 -52 -140
-49 -25 -46 -2218 1 -1121 6 -2051 10 -2067 76 -284 292 -485 562 -523 65 -9
4024 -9 4092 0 276 37 512 268 562 552 8 41 11 689 11 2070 -1 2226 4 2074
-66 2220 -42 90 -61 117 -126 183 -62 63 -116 102 -196 141 -49 24 -72 33
-127 47 -56 14 -130 17 -450 19 -203 2 -375 3 -382 4 -8 1 -11 65 -12 232 -1
257 -6 280 -65 322 -23 16 -45 22 -86 22 -64 -1 -98 -20 -128 -75 -18 -32 -20
-55 -20 -262 0 -125 -3 -231 -5 -235 -4 -6 -1894 -10 -1917 -4 -3 0 -5 106 -5
234 0 171 -3 240 -13 264 -29 67 -131 101 -200 67z m-85 -1038 c1 -135 7 -242
13 -262 29 -88 163 -123 233 -61 51 46 57 71 56 264 0 98 0 203 0 233 l1 55
954 0 c525 0 957 -3 961 -7 4 -3 7 -105 7 -225 0 -120 2 -231 5 -246 8 -39 67
-95 109 -103 71 -13 139 19 168 79 13 28 16 75 16 268 l1 234 372 -1 c205 -1
383 -4 396 -8 95 -23 154 -55 221 -120 46 -45 100 -135 117 -196 4 -14 9 -267
10 -562 4 -511 3 -538 -14 -539 -26 -1 -4715 -1 -4731 0 -10 1 -12 108 -12
520 1 577 3 598 66 698 66 102 148 162 264 191 55 15 122 17 425 17 l360 0 2
-229z m3640 -2796 c3 -1472 5 -1403 -53 -1510 -58 -106 -183 -197 -299 -217
-27 -5 -952 -8 -2055 -7 l-2005 1 -64 26 c-133 55 -218 147 -262 285 -17 54
-18 131 -18 1413 -1 745 1 1358 4 1361 3 2 1073 4 2377 4 l2373 -1 2 -1355z"/>
<path d="M3389 2336 c-2 -2 -20 -6 -39 -8 l-35 -4 -1 -302 -1 -302 58 0 59 0
0 38 c1 20 1 92 1 159 l0 122 34 7 c43 8 84 -16 86 -49 1 -12 3 -77 4 -145 1
-82 5 -126 13 -131 6 -4 33 -4 59 -1 l48 5 -1 155 c-1 133 -4 160 -21 189 -33
60 -65 76 -149 76 l-75 0 1 65 c3 122 2 130 -18 130 -10 0 -21 -2 -23 -4z"/>
<path d="M1380 2277 c-79 -29 -119 -90 -121 -187 -2 -74 46 -138 117 -156 42
-11 95 -12 122 -3 25 10 27 6 10 -24 -17 -33 -58 -65 -93 -74 -16 -4 -33 -8
-37 -9 -5 -1 -24 -2 -44 -3 l-35 -1 3 -47 3 -48 50 1 c97 1 161 25 219 80 29
28 63 94 73 142 13 63 5 177 -15 223 -42 97 -150 142 -252 106z m104 -98 c29
-14 45 -48 49 -106 4 -47 -3 -52 -66 -55 -44 -2 -87 25 -88 55 -5 95 36 137
105 106z"/>
<path d="M1817 2269 c-39 -20 -88 -75 -94 -106 -16 -77 -15 -103 7 -145 22
-44 59 -75 103 -84 48 -10 90 -12 118 -4 27 8 28 7 18 -13 -29 -57 -75 -86
-147 -93 -69 -8 -71 -9 -67 -46 2 -18 4 -39 4 -47 1 -19 111 -9 172 15 127 50
190 169 176 330 -9 100 -50 170 -116 196 -47 19 -134 17 -174 -3z m123 -89
c27 -14 40 -42 47 -97 6 -54 -3 -63 -68 -63 -64 0 -94 32 -86 92 8 63 58 94
107 68z"/>
<path d="M2325 2284 c-5 -1 -21 -5 -35 -8 -43 -9 -91 -61 -110 -117 -24 -70
-16 -129 25 -178 36 -43 127 -68 185 -51 35 10 43 4 28 -24 -27 -51 -99 -86
-178 -86 -31 0 -31 0 -28 -47 l3 -48 45 -1 c123 -2 235 62 275 159 45 108 32
281 -26 344 -39 42 -132 71 -184 57z m69 -105 c28 -13 34 -25 45 -86 11 -55
-2 -72 -55 -75 -54 -2 -94 23 -95 60 -2 52 2 67 27 90 28 25 42 27 78 11z"/>
<path d="M2945 2273 c-80 -27 -120 -88 -111 -167 3 -28 6 -52 6 -54 1 -13 75
-70 106 -81 21 -7 62 -24 90 -37 59 -28 74 -60 44 -97 -15 -18 -27 -21 -82
-20 -36 1 -82 9 -103 17 -21 9 -39 15 -40 14 -1 -2 -7 -16 -12 -33 -6 -16 -14
-38 -18 -47 -5 -13 0 -21 21 -29 44 -18 53 -20 139 -26 124 -8 204 28 230 104
27 80 -4 164 -72 199 -21 10 -40 21 -43 24 -3 3 -12 6 -20 8 -43 10 -110 46
-115 63 -21 67 52 86 184 48 10 -3 21 12 32 43 l18 46 -42 18 c-53 21 -160 25
-212 7z"/>
<path d="M979 2242 c-24 -19 -65 -45 -91 -58 -27 -13 -48 -26 -48 -29 0 -3 7
-23 16 -45 18 -44 24 -45 88 -14 16 8 32 14 35 14 3 0 6 -87 6 -193 l0 -192
58 -3 c49 -3 57 -1 58 15 1 23 1 491 0 518 -1 17 -8 20 -40 20 -29 0 -50 -8
-82 -33z"/>
<path d="M3855 2145 c-5 -2 -22 -6 -37 -9 -24 -6 -26 -9 -18 -36 9 -33 10 -36
10 -49 0 -5 34 -7 78 -4 67 5 79 3 94 -13 22 -26 28 -60 8 -55 -54 14 -161 -9
-197 -41 -60 -55 -46 -160 26 -202 39 -23 161 -30 249 -14 l52 10 -3 156 c-3
175 -13 209 -72 242 -27 15 -161 26 -190 15z m150 -255 c0 0 0 -15 0 -32 -1
-47 -10 -57 -53 -53 -20 2 -43 3 -50 4 -15 1 -31 41 -24 60 9 23 62 40 96 30
17 -5 31 -9 31 -9z"/>
<path d="M4340 2146 c-3 -2 -21 -6 -40 -9 -45 -6 -68 -16 -72 -30 -2 -7 -4
-95 -4 -197 l1 -185 60 -3 60 -3 0 156 c0 97 3 159 10 163 5 4 37 7 69 7 51 0
59 3 62 19 1 11 5 30 9 43 4 18 0 25 -17 32 -24 9 -131 15 -138 7z"/>
<path d="M4637 2144 c-1 -2 -15 -5 -30 -8 -14 -2 -30 -7 -35 -10 -4 -2 -8
-128 -8 -278 l1 -273 58 -3 c64 -3 57 -15 60 101 2 41 5 51 17 48 70 -19 162
2 202 46 64 71 68 232 7 306 -47 57 -94 75 -189 74 -44 0 -81 -1 -83 -3z m145
-106 c18 -9 61 -82 53 -90 -2 -2 -5 -22 -6 -45 -4 -55 -26 -84 -70 -87 -74 -6
-77 -1 -74 121 1 59 3 109 4 111 2 7 76 -2 93 -10z"/>
</g>
</svg>
